<svg xmlns="http://www.w3.org/2000/svg" width="343" height="343" viewBox="0 0 343 343">
  <g id="Group_11" data-name="Group 11" transform="translate(-398.5 -294.5)">
    <rect id="Rectangle_1" data-name="Rectangle 1" width="114" height="114" transform="translate(399 295)" fill="none" stroke="#000" stroke-width="1"/>
    <rect id="Rectangle_4" data-name="Rectangle 4" width="114" height="114" transform="translate(399 409)" fill="none" stroke="#000" stroke-width="1"/>
    <rect id="Rectangle_9" data-name="Rectangle 9" width="114" height="114" transform="translate(399 523)" fill="none" stroke="#000" stroke-width="1"/>
    <rect id="Rectangle_2" data-name="Rectangle 2" width="114" height="114" transform="translate(513 295)" fill="none" stroke="#000" stroke-width="1"/>
    <rect id="Rectangle_5" data-name="Rectangle 5" width="114" height="114" transform="translate(513 409)" fill="#b1ffb1" stroke="#000" stroke-width="1"/>
    <rect id="Rectangle_7" data-name="Rectangle 7" width="114" height="114" transform="translate(513 523)" fill="none" stroke="#000" stroke-width="1"/>
    <rect id="Rectangle_3" data-name="Rectangle 3" width="114" height="114" transform="translate(627 295)" fill="none" stroke="#000" stroke-width="1"/>
    <rect id="Rectangle_6" data-name="Rectangle 6" width="114" height="114" transform="translate(627 409)" fill="none" stroke="#000" stroke-width="1"/>
    <rect id="Rectangle_8" data-name="Rectangle 8" width="114" height="114" transform="translate(627 523)" fill="none" stroke="#000" stroke-width="1"/>
    <g id="Group_3" data-name="Group 3" transform="translate(440 485) rotate(-90)">
      <line id="Line_1" data-name="Line 1" y2="76" transform="translate(14 12)" fill="none" stroke="#000" stroke-width="2"/>
      <g id="Polygon_1" data-name="Polygon 1">
        <path d="M 28.13198089599609 24.5 L 0.8680188059806824 24.5 L 14.5 0.9965841174125671 L 28.13198089599609 24.5 Z" stroke="none"/>
        <path d="M 14.5 1.99315071105957 L 1.736026763916016 24 L 27.26397323608398 24 L 14.5 1.99315071105957 M 14.5 0 L 29 25 L 0 25 L 14.5 0 Z" stroke="none" fill="#000"/>
      </g>
    </g>
    <g id="Group_4" data-name="Group 4" transform="translate(700.666 456) rotate(90)">
      <line id="Line_1-2" data-name="Line 1" y2="76" transform="translate(14 12)" fill="none" stroke="#000" stroke-width="2"/>
      <g id="Polygon_1-2" data-name="Polygon 1" transform="translate(0 -0.334)">
        <path d="M 28.13198089599609 24.5 L 0.8680188059806824 24.5 L 14.5 0.9965841174125671 L 28.13198089599609 24.5 Z" stroke="none"/>
        <path d="M 14.5 1.99315071105957 L 1.736026763916016 24 L 27.26397323608398 24 L 14.5 1.99315071105957 M 14.5 0 L 29 25 L 0 25 L 14.5 0 Z" stroke="none" fill="#000"/>
      </g>
    </g>
    <g id="Group_5" data-name="Group 5" transform="translate(466.366 389.603) rotate(-45)">
      <line id="Line_1-3" data-name="Line 1" y2="76" transform="translate(14 12)" fill="none" stroke="#000" stroke-width="2"/>
      <g id="Polygon_1-3" data-name="Polygon 1" transform="translate(0 0)">
        <path d="M 28.13198089599609 24.5 L 0.8680188059806824 24.5 L 14.5 0.9965841174125671 L 28.13198089599609 24.5 Z" stroke="none"/>
        <path d="M 14.5 1.99315071105957 L 1.736026763916016 24 L 27.26397323608398 24 L 14.5 1.99315071105957 M 14.5 0 L 29 25 L 0 25 L 14.5 0 Z" stroke="none" fill="#000"/>
      </g>
    </g>
    <g id="Group_6" data-name="Group 6" transform="translate(673.634 559.494) rotate(135)">
      <line id="Line_1-4" data-name="Line 1" y2="76" transform="translate(14 12)" fill="none" stroke="#000" stroke-width="2"/>
      <g id="Polygon_1-4" data-name="Polygon 1" transform="translate(0 0)">
        <path d="M 28.13198089599609 24.5 L 0.8680188059806824 24.5 L 14.5 0.9965841174125671 L 28.13198089599609 24.5 Z" stroke="none"/>
        <path d="M 14.5 1.99315071105957 L 1.736026763916016 24 L 27.26397323608398 24 L 14.5 1.99315071105957 M 14.5 0 L 29 25 L 0 25 L 14.5 0 Z" stroke="none" fill="#000"/>
      </g>
    </g>
    <g id="Group_7" data-name="Group 7" transform="translate(486.872 580) rotate(-135)">
      <line id="Line_1-5" data-name="Line 1" y2="76" transform="translate(14 12)" fill="none" stroke="#000" stroke-width="2"/>
      <g id="Polygon_1-5" data-name="Polygon 1" transform="translate(0 0)">
        <path d="M 28.13198089599609 24.5 L 0.8680188059806824 24.5 L 14.5 0.9965841174125671 L 28.13198089599609 24.5 Z" stroke="none"/>
        <path d="M 14.5 1.99315071105957 L 1.736026763916016 24 L 27.26397323608398 24 L 14.5 1.99315071105957 M 14.5 0 L 29 25 L 0 25 L 14.5 0 Z" stroke="none" fill="#000"/>
      </g>
    </g>
    <g id="Group_8" data-name="Group 8" transform="translate(653.128 369.097) rotate(45)">
      <line id="Line_1-6" data-name="Line 1" y2="76" transform="translate(14 12)" fill="none" stroke="#000" stroke-width="2"/>
      <g id="Polygon_1-6" data-name="Polygon 1" transform="translate(0 0)">
        <path d="M 28.13198089599609 24.5 L 0.8680188059806824 24.5 L 14.5 0.9965841174125671 L 28.13198089599609 24.5 Z" stroke="none"/>
        <path d="M 14.5 1.99315071105957 L 1.736026763916016 24 L 27.26397323608398 24 L 14.5 1.99315071105957 M 14.5 0 L 29 25 L 0 25 L 14.5 0 Z" stroke="none" fill="#000"/>
      </g>
    </g>
    <g id="Group_9" data-name="Group 9" transform="translate(585 601) rotate(-180)">
      <line id="Line_1-7" data-name="Line 1" y2="76" transform="translate(14 12)" fill="none" stroke="#000" stroke-width="2"/>
      <g id="Polygon_1-7" data-name="Polygon 1">
        <path d="M 28.13198089599609 24.5 L 0.8680188059806824 24.5 L 14.5 0.9965841174125671 L 28.13198089599609 24.5 Z" stroke="none"/>
        <path d="M 14.5 1.99315071105957 L 1.736026763916016 24 L 27.26397323608398 24 L 14.5 1.99315071105957 M 14.5 0 L 29 25 L 0 25 L 14.5 0 Z" stroke="none" fill="#000"/>
      </g>
    </g>
    <g id="Group_10" data-name="Group 10" transform="translate(556 340.334)">
      <line id="Line_1-8" data-name="Line 1" y2="76" transform="translate(14 12)" fill="none" stroke="#000" stroke-width="2"/>
      <g id="Polygon_1-8" data-name="Polygon 1" transform="translate(0 -0.334)">
        <path d="M 28.13198089599609 24.5 L 0.8680188059806824 24.5 L 14.5 0.9965841174125671 L 28.13198089599609 24.5 Z" stroke="none"/>
        <path d="M 14.5 1.99315071105957 L 1.736026763916016 24 L 27.26397323608398 24 L 14.5 1.99315071105957 M 14.5 0 L 29 25 L 0 25 L 14.5 0 Z" stroke="none" fill="#000"/>
      </g>
    </g>
  </g>
</svg>
